<mxfile host="app.diagrams.net" modified="2020-12-08T15:17:32.999Z" agent="5.0 (Windows NT 10.0; Win64; x64) AppleWebKit/537.36 (KHTML, like Gecko) Chrome/87.0.4280.67 Safari/537.36 Edg/87.0.664.55" etag="r38loQ06728_6CmA0yk0" version="13.11.0" type="github">
  <diagram id="7cJANgdU671tOvLhNtAO" name="Page-1">
    <mxGraphModel dx="1037" dy="588" grid="1" gridSize="10" guides="1" tooltips="1" connect="1" arrows="1" fold="1" page="1" pageScale="1" pageWidth="3300" pageHeight="4681" math="0" shadow="0">
      <root>
        <mxCell id="0" />
        <mxCell id="1" parent="0" />
        <mxCell id="JVtk01FOgyeTUDm5MsDd-3" value="" style="ellipse;html=1;shape=endState;fillColor=#000000;strokeColor=#000000;" parent="1" vertex="1">
          <mxGeometry x="1785" y="2360" width="30" height="30" as="geometry" />
        </mxCell>
        <mxCell id="JVtk01FOgyeTUDm5MsDd-4" style="edgeStyle=none;rounded=0;orthogonalLoop=1;jettySize=auto;html=1;exitX=0.5;exitY=1;exitDx=0;exitDy=0;entryX=0.5;entryY=0;entryDx=0;entryDy=0;strokeWidth=1;fillColor=#f0a30a;strokeColor=#FF0000;" parent="1" source="JVtk01FOgyeTUDm5MsDd-5" target="JVtk01FOgyeTUDm5MsDd-6" edge="1">
          <mxGeometry relative="1" as="geometry" />
        </mxCell>
        <mxCell id="JVtk01FOgyeTUDm5MsDd-5" value="" style="ellipse;fillColor=#000000;strokeColor=none;" parent="1" vertex="1">
          <mxGeometry x="1520" y="1360" width="30" height="30" as="geometry" />
        </mxCell>
        <mxCell id="JVtk01FOgyeTUDm5MsDd-6" value="&lt;font style=&quot;font-size: 12px&quot;&gt;Actor nhập form đăng nhập&lt;/font&gt;" style="rounded=1;whiteSpace=wrap;html=1;arcSize=40;fontColor=#000000;fillColor=#ffffc0;strokeColor=#ff0000;" parent="1" vertex="1">
          <mxGeometry x="1467.5" y="1410" width="135" height="40" as="geometry" />
        </mxCell>
        <mxCell id="JVtk01FOgyeTUDm5MsDd-7" value="" style="edgeStyle=orthogonalEdgeStyle;html=1;verticalAlign=bottom;endArrow=open;endSize=8;strokeColor=#ff0000;entryX=0.5;entryY=0;entryDx=0;entryDy=0;" parent="1" source="JVtk01FOgyeTUDm5MsDd-6" target="JVtk01FOgyeTUDm5MsDd-8" edge="1">
          <mxGeometry relative="1" as="geometry">
            <mxPoint x="1535" y="1370" as="targetPoint" />
          </mxGeometry>
        </mxCell>
        <mxCell id="JVtk01FOgyeTUDm5MsDd-8" value="Hiển thị màn hình hệ thống" style="rounded=1;whiteSpace=wrap;html=1;arcSize=40;fontColor=#000000;fillColor=#ffffc0;strokeColor=#ff0000;" parent="1" vertex="1">
          <mxGeometry x="1475" y="1470" width="120" height="40" as="geometry" />
        </mxCell>
        <mxCell id="JVtk01FOgyeTUDm5MsDd-9" value="" style="edgeStyle=orthogonalEdgeStyle;html=1;verticalAlign=bottom;endArrow=open;endSize=8;strokeColor=#ff0000;entryX=0.5;entryY=0;entryDx=0;entryDy=0;" parent="1" source="JVtk01FOgyeTUDm5MsDd-8" target="JVtk01FOgyeTUDm5MsDd-15" edge="1">
          <mxGeometry relative="1" as="geometry">
            <mxPoint x="1535" y="1470" as="targetPoint" />
          </mxGeometry>
        </mxCell>
        <mxCell id="JVtk01FOgyeTUDm5MsDd-10" style="edgeStyle=orthogonalEdgeStyle;rounded=0;orthogonalLoop=1;jettySize=auto;html=1;exitX=0.5;exitY=1;exitDx=0;exitDy=0;entryX=0.5;entryY=0;entryDx=0;entryDy=0;fillColor=#e51400;strokeColor=#B20000;" parent="1" source="JVtk01FOgyeTUDm5MsDd-11" target="JVtk01FOgyeTUDm5MsDd-17" edge="1">
          <mxGeometry relative="1" as="geometry" />
        </mxCell>
        <mxCell id="JVtk01FOgyeTUDm5MsDd-11" value="Giao diện quản lí thức uống" style="rounded=1;whiteSpace=wrap;html=1;arcSize=40;fontColor=#000000;fillColor=#ffffc0;strokeColor=#ff0000;" parent="1" vertex="1">
          <mxGeometry x="1475" y="1590" width="120" height="40" as="geometry" />
        </mxCell>
        <mxCell id="JVtk01FOgyeTUDm5MsDd-12" style="edgeStyle=none;rounded=0;orthogonalLoop=1;jettySize=auto;html=1;exitX=0.5;exitY=1;exitDx=0;exitDy=0;strokeColor=#ff0000;" parent="1" source="JVtk01FOgyeTUDm5MsDd-13" edge="1">
          <mxGeometry relative="1" as="geometry">
            <mxPoint x="1535" y="1960" as="targetPoint" />
          </mxGeometry>
        </mxCell>
        <mxCell id="JVtk01FOgyeTUDm5MsDd-13" value="Thêm thuốc uống" style="rounded=1;whiteSpace=wrap;html=1;arcSize=40;fontColor=#000000;fillColor=#ffffc0;strokeColor=#ff0000;" parent="1" vertex="1">
          <mxGeometry x="1467.5" y="1840" width="135" height="40" as="geometry" />
        </mxCell>
        <mxCell id="JVtk01FOgyeTUDm5MsDd-14" style="edgeStyle=orthogonalEdgeStyle;rounded=0;orthogonalLoop=1;jettySize=auto;html=1;exitX=0.5;exitY=1;exitDx=0;exitDy=0;entryX=0.5;entryY=0;entryDx=0;entryDy=0;fillColor=#e51400;strokeColor=#B20000;" parent="1" source="JVtk01FOgyeTUDm5MsDd-15" target="JVtk01FOgyeTUDm5MsDd-11" edge="1">
          <mxGeometry relative="1" as="geometry" />
        </mxCell>
        <mxCell id="JVtk01FOgyeTUDm5MsDd-15" value="Actor chọn chức năng quản lý thức uống" style="rounded=1;whiteSpace=wrap;html=1;arcSize=40;fontColor=#000000;fillColor=#ffffc0;strokeColor=#ff0000;" parent="1" vertex="1">
          <mxGeometry x="1475" y="1530" width="120" height="40" as="geometry" />
        </mxCell>
        <mxCell id="JVtk01FOgyeTUDm5MsDd-16" style="rounded=0;orthogonalLoop=1;jettySize=auto;html=1;exitX=0.5;exitY=1;exitDx=0;exitDy=0;entryX=0.5;entryY=0;entryDx=0;entryDy=0;fillColor=#e51400;strokeColor=#FF0000;" parent="1" source="JVtk01FOgyeTUDm5MsDd-17" target="JVtk01FOgyeTUDm5MsDd-19" edge="1">
          <mxGeometry relative="1" as="geometry" />
        </mxCell>
        <mxCell id="JVtk01FOgyeTUDm5MsDd-17" value="Chọn loại cập nhật" style="rounded=1;whiteSpace=wrap;html=1;arcSize=40;fontColor=#000000;fillColor=#ffffc0;strokeColor=#ff0000;" parent="1" vertex="1">
          <mxGeometry x="1475" y="1650" width="120" height="40" as="geometry" />
        </mxCell>
        <mxCell id="JVtk01FOgyeTUDm5MsDd-18" style="edgeStyle=orthogonalEdgeStyle;rounded=0;orthogonalLoop=1;jettySize=auto;html=1;exitX=0.5;exitY=1;exitDx=0;exitDy=0;entryX=0.5;entryY=0;entryDx=0;entryDy=0;strokeColor=#ff0000;" parent="1" source="JVtk01FOgyeTUDm5MsDd-19" target="JVtk01FOgyeTUDm5MsDd-13" edge="1">
          <mxGeometry relative="1" as="geometry" />
        </mxCell>
        <mxCell id="JVtk01FOgyeTUDm5MsDd-19" value="" style="rhombus;whiteSpace=wrap;html=1;fillColor=#ffffc0;strokeColor=#ff0000;" parent="1" vertex="1">
          <mxGeometry x="1521.25" y="1745" width="27.5" height="30" as="geometry" />
        </mxCell>
        <mxCell id="JVtk01FOgyeTUDm5MsDd-20" value="Loại cập nhật?" style="text;html=1;strokeColor=none;fillColor=none;align=center;verticalAlign=middle;whiteSpace=wrap;rounded=0;" parent="1" vertex="1">
          <mxGeometry x="1415" y="1720" width="97.5" height="20" as="geometry" />
        </mxCell>
        <mxCell id="JVtk01FOgyeTUDm5MsDd-21" style="edgeStyle=none;rounded=0;orthogonalLoop=1;jettySize=auto;html=1;exitX=1;exitY=0.5;exitDx=0;exitDy=0;entryX=0;entryY=0.5;entryDx=0;entryDy=0;fillColor=#e51400;strokeColor=#FF0000;endArrow=none;endFill=0;" parent="1" source="JVtk01FOgyeTUDm5MsDd-19" target="JVtk01FOgyeTUDm5MsDd-24" edge="1">
          <mxGeometry relative="1" as="geometry">
            <mxPoint x="1583.13" y="1760" as="sourcePoint" />
          </mxGeometry>
        </mxCell>
        <mxCell id="JVtk01FOgyeTUDm5MsDd-22" style="edgeStyle=none;rounded=0;orthogonalLoop=1;jettySize=auto;html=1;exitX=1;exitY=0.5;exitDx=0;exitDy=0;entryX=0;entryY=0.5;entryDx=0;entryDy=0;fillColor=#e51400;strokeColor=#FF0000;endArrow=none;endFill=0;" parent="1" source="JVtk01FOgyeTUDm5MsDd-24" target="JVtk01FOgyeTUDm5MsDd-27" edge="1">
          <mxGeometry relative="1" as="geometry" />
        </mxCell>
        <mxCell id="JVtk01FOgyeTUDm5MsDd-23" style="edgeStyle=none;rounded=0;orthogonalLoop=1;jettySize=auto;html=1;entryX=0.5;entryY=0;entryDx=0;entryDy=0;fillColor=#e51400;strokeColor=#FF0000;" parent="1" source="JVtk01FOgyeTUDm5MsDd-24" target="JVtk01FOgyeTUDm5MsDd-35" edge="1">
          <mxGeometry relative="1" as="geometry" />
        </mxCell>
        <mxCell id="JVtk01FOgyeTUDm5MsDd-24" value="" style="rhombus;strokeColor=#FF0000;fillColor=#FFFF99;" parent="1" vertex="1">
          <mxGeometry x="1690" y="1745" width="30" height="30" as="geometry" />
        </mxCell>
        <mxCell id="JVtk01FOgyeTUDm5MsDd-25" style="edgeStyle=none;rounded=0;orthogonalLoop=1;jettySize=auto;html=1;exitX=1;exitY=0.5;exitDx=0;exitDy=0;entryX=0;entryY=0.5;entryDx=0;entryDy=0;fillColor=#e51400;strokeColor=#FF0000;endArrow=none;endFill=0;" parent="1" source="JVtk01FOgyeTUDm5MsDd-27" target="JVtk01FOgyeTUDm5MsDd-31" edge="1">
          <mxGeometry relative="1" as="geometry" />
        </mxCell>
        <mxCell id="JVtk01FOgyeTUDm5MsDd-26" style="edgeStyle=none;rounded=0;orthogonalLoop=1;jettySize=auto;html=1;entryX=0.5;entryY=0;entryDx=0;entryDy=0;fillColor=#e51400;strokeColor=#FF0000;" parent="1" source="JVtk01FOgyeTUDm5MsDd-27" target="JVtk01FOgyeTUDm5MsDd-37" edge="1">
          <mxGeometry relative="1" as="geometry" />
        </mxCell>
        <mxCell id="JVtk01FOgyeTUDm5MsDd-27" value="" style="rhombus;strokeColor=#FF0000;fillColor=#FFFF99;" parent="1" vertex="1">
          <mxGeometry x="1840" y="1745" width="30" height="30" as="geometry" />
        </mxCell>
        <mxCell id="JVtk01FOgyeTUDm5MsDd-28" value="Sửa" style="text;html=1;align=center;verticalAlign=middle;resizable=0;points=[];autosize=1;" parent="1" vertex="1">
          <mxGeometry x="1670" y="1720" width="40" height="20" as="geometry" />
        </mxCell>
        <mxCell id="JVtk01FOgyeTUDm5MsDd-29" value="Tra cứu" style="text;html=1;align=center;verticalAlign=middle;resizable=0;points=[];autosize=1;" parent="1" vertex="1">
          <mxGeometry x="1823.13" y="1720" width="60" height="20" as="geometry" />
        </mxCell>
        <mxCell id="JVtk01FOgyeTUDm5MsDd-30" style="edgeStyle=orthogonalEdgeStyle;rounded=0;orthogonalLoop=1;jettySize=auto;html=1;exitX=0.5;exitY=1;exitDx=0;exitDy=0;entryX=0.5;entryY=0;entryDx=0;entryDy=0;strokeColor=#ff0000;" parent="1" source="JVtk01FOgyeTUDm5MsDd-31" target="JVtk01FOgyeTUDm5MsDd-39" edge="1">
          <mxGeometry relative="1" as="geometry" />
        </mxCell>
        <mxCell id="JVtk01FOgyeTUDm5MsDd-31" value="" style="rhombus;strokeColor=#FF0000;fillColor=#FFFF99;" parent="1" vertex="1">
          <mxGeometry x="1998.13" y="1745" width="30" height="30" as="geometry" />
        </mxCell>
        <mxCell id="JVtk01FOgyeTUDm5MsDd-32" value="Xóa" style="text;html=1;align=center;verticalAlign=middle;resizable=0;points=[];autosize=1;" parent="1" vertex="1">
          <mxGeometry x="1988.13" y="1720" width="40" height="20" as="geometry" />
        </mxCell>
        <mxCell id="JVtk01FOgyeTUDm5MsDd-33" style="edgeStyle=orthogonalEdgeStyle;rounded=0;orthogonalLoop=1;jettySize=auto;html=1;exitX=0.5;exitY=1;exitDx=0;exitDy=0;" parent="1" edge="1">
          <mxGeometry relative="1" as="geometry">
            <mxPoint x="1568.13" y="1880" as="sourcePoint" />
            <mxPoint x="1568.13" y="1880" as="targetPoint" />
          </mxGeometry>
        </mxCell>
        <mxCell id="JVtk01FOgyeTUDm5MsDd-34" style="edgeStyle=orthogonalEdgeStyle;rounded=0;orthogonalLoop=1;jettySize=auto;html=1;exitX=0.5;exitY=1;exitDx=0;exitDy=0;entryX=1;entryY=0.5;entryDx=0;entryDy=0;strokeColor=#ff0000;" parent="1" source="JVtk01FOgyeTUDm5MsDd-35" target="JVtk01FOgyeTUDm5MsDd-41" edge="1">
          <mxGeometry relative="1" as="geometry" />
        </mxCell>
        <mxCell id="JVtk01FOgyeTUDm5MsDd-35" value="Sửa thức uống" style="rounded=1;whiteSpace=wrap;html=1;arcSize=40;fontColor=#000000;fillColor=#ffffc0;strokeColor=#ff0000;" parent="1" vertex="1">
          <mxGeometry x="1637.5" y="1840" width="135" height="40" as="geometry" />
        </mxCell>
        <mxCell id="JVtk01FOgyeTUDm5MsDd-78" style="edgeStyle=orthogonalEdgeStyle;rounded=0;orthogonalLoop=1;jettySize=auto;html=1;exitX=0.5;exitY=1;exitDx=0;exitDy=0;entryX=1;entryY=0.75;entryDx=0;entryDy=0;strokeColor=#FF0000;" parent="1" source="JVtk01FOgyeTUDm5MsDd-37" target="JVtk01FOgyeTUDm5MsDd-41" edge="1">
          <mxGeometry relative="1" as="geometry" />
        </mxCell>
        <mxCell id="JVtk01FOgyeTUDm5MsDd-37" value="Tra cứu" style="rounded=1;whiteSpace=wrap;html=1;arcSize=40;fontColor=#000000;fillColor=#ffffc0;strokeColor=#ff0000;" parent="1" vertex="1">
          <mxGeometry x="1787.5" y="1840" width="135" height="40" as="geometry" />
        </mxCell>
        <mxCell id="JVtk01FOgyeTUDm5MsDd-38" style="edgeStyle=orthogonalEdgeStyle;rounded=0;orthogonalLoop=1;jettySize=auto;html=1;exitX=0.5;exitY=1;exitDx=0;exitDy=0;strokeColor=#ff0000;entryX=0.5;entryY=0;entryDx=0;entryDy=0;" parent="1" source="JVtk01FOgyeTUDm5MsDd-39" target="JVtk01FOgyeTUDm5MsDd-51" edge="1">
          <mxGeometry relative="1" as="geometry">
            <mxPoint x="2066" y="1930" as="targetPoint" />
          </mxGeometry>
        </mxCell>
        <mxCell id="JVtk01FOgyeTUDm5MsDd-39" value="Xóa" style="rounded=1;whiteSpace=wrap;html=1;arcSize=50;fontColor=#000000;fillColor=#ffffc0;strokeColor=#ff0000;" parent="1" vertex="1">
          <mxGeometry x="1945.63" y="1840" width="135" height="40" as="geometry" />
        </mxCell>
        <mxCell id="JVtk01FOgyeTUDm5MsDd-40" style="edgeStyle=orthogonalEdgeStyle;rounded=0;orthogonalLoop=1;jettySize=auto;html=1;exitX=0.5;exitY=1;exitDx=0;exitDy=0;entryX=0.5;entryY=0;entryDx=0;entryDy=0;strokeColor=#FF0000;" parent="1" source="JVtk01FOgyeTUDm5MsDd-41" target="JVtk01FOgyeTUDm5MsDd-57" edge="1">
          <mxGeometry relative="1" as="geometry" />
        </mxCell>
        <mxCell id="JVtk01FOgyeTUDm5MsDd-41" value="Actor nhập form thức uống" style="rounded=1;whiteSpace=wrap;html=1;arcSize=40;fontColor=#000000;fillColor=#ffffc0;strokeColor=#ff0000;" parent="1" vertex="1">
          <mxGeometry x="1467.5" y="1960" width="135" height="40" as="geometry" />
        </mxCell>
        <mxCell id="JVtk01FOgyeTUDm5MsDd-42" style="edgeStyle=orthogonalEdgeStyle;rounded=0;orthogonalLoop=1;jettySize=auto;html=1;exitX=0.5;exitY=1;exitDx=0;exitDy=0;strokeColor=#ff0000;entryX=0.5;entryY=0;entryDx=0;entryDy=0;" parent="1" source="JVtk01FOgyeTUDm5MsDd-43" target="JVtk01FOgyeTUDm5MsDd-46" edge="1">
          <mxGeometry relative="1" as="geometry">
            <mxPoint x="1540" y="2090" as="targetPoint" />
          </mxGeometry>
        </mxCell>
        <mxCell id="JVtk01FOgyeTUDm5MsDd-43" value="Xác nhận với cơ sở dữ liệu" style="rounded=1;whiteSpace=wrap;html=1;arcSize=40;fontColor=#000000;fillColor=#ffffc0;strokeColor=#ff0000;" parent="1" vertex="1">
          <mxGeometry x="1467.5" y="2140" width="135" height="40" as="geometry" />
        </mxCell>
        <mxCell id="JVtk01FOgyeTUDm5MsDd-44" value="yes" style="edgeStyle=orthogonalEdgeStyle;rounded=0;orthogonalLoop=1;jettySize=auto;html=1;exitX=1;exitY=0.5;exitDx=0;exitDy=0;strokeColor=#ff0000;entryX=0.25;entryY=0;entryDx=0;entryDy=0;" parent="1" source="JVtk01FOgyeTUDm5MsDd-46" target="JVtk01FOgyeTUDm5MsDd-49" edge="1">
          <mxGeometry relative="1" as="geometry">
            <mxPoint x="1695" y="2105" as="targetPoint" />
            <Array as="points">
              <mxPoint x="1763" y="2235" />
            </Array>
          </mxGeometry>
        </mxCell>
        <mxCell id="JVtk01FOgyeTUDm5MsDd-45" value="no" style="edgeStyle=orthogonalEdgeStyle;rounded=0;orthogonalLoop=1;jettySize=auto;html=1;exitX=0;exitY=0.5;exitDx=0;exitDy=0;entryX=0;entryY=0.5;entryDx=0;entryDy=0;strokeColor=#ff0000;" parent="1" source="JVtk01FOgyeTUDm5MsDd-46" target="JVtk01FOgyeTUDm5MsDd-41" edge="1">
          <mxGeometry x="-0.8354" relative="1" as="geometry">
            <Array as="points">
              <mxPoint x="1400" y="2235" />
              <mxPoint x="1400" y="1980" />
            </Array>
            <mxPoint x="1" as="offset" />
          </mxGeometry>
        </mxCell>
        <mxCell id="JVtk01FOgyeTUDm5MsDd-46" value="" style="rhombus;whiteSpace=wrap;html=1;fillColor=#ffffc0;strokeColor=#ff0000;" parent="1" vertex="1">
          <mxGeometry x="1512.5" y="2220" width="45" height="30" as="geometry" />
        </mxCell>
        <mxCell id="JVtk01FOgyeTUDm5MsDd-47" value="Hợp lệ không?" style="text;html=1;align=center;verticalAlign=middle;resizable=0;points=[];autosize=1;" parent="1" vertex="1">
          <mxGeometry x="1435" y="2190" width="90" height="20" as="geometry" />
        </mxCell>
        <mxCell id="JVtk01FOgyeTUDm5MsDd-48" style="edgeStyle=orthogonalEdgeStyle;rounded=0;orthogonalLoop=1;jettySize=auto;html=1;exitX=0.5;exitY=1;exitDx=0;exitDy=0;strokeColor=#FF0000;entryX=0.5;entryY=0;entryDx=0;entryDy=0;" parent="1" source="JVtk01FOgyeTUDm5MsDd-49" target="JVtk01FOgyeTUDm5MsDd-3" edge="1">
          <mxGeometry relative="1" as="geometry">
            <mxPoint x="1800" y="2380" as="targetPoint" />
          </mxGeometry>
        </mxCell>
        <mxCell id="JVtk01FOgyeTUDm5MsDd-49" value="Xác nhận cập nhật" style="rounded=1;whiteSpace=wrap;html=1;arcSize=40;fontColor=#000000;fillColor=#ffffc0;strokeColor=#ff0000;" parent="1" vertex="1">
          <mxGeometry x="1725" y="2270" width="150" height="41" as="geometry" />
        </mxCell>
        <mxCell id="JVtk01FOgyeTUDm5MsDd-50" style="edgeStyle=orthogonalEdgeStyle;rounded=0;orthogonalLoop=1;jettySize=auto;html=1;exitX=0.5;exitY=1;exitDx=0;exitDy=0;strokeColor=#ff0000;" parent="1" source="JVtk01FOgyeTUDm5MsDd-51" target="JVtk01FOgyeTUDm5MsDd-53" edge="1">
          <mxGeometry relative="1" as="geometry" />
        </mxCell>
        <mxCell id="JVtk01FOgyeTUDm5MsDd-51" value="Xuất ra danh sách thức uống" style="rounded=1;whiteSpace=wrap;html=1;arcSize=50;fontColor=#000000;fillColor=#ffffc0;strokeColor=#ff0000;" parent="1" vertex="1">
          <mxGeometry x="1945.63" y="1910" width="135" height="40" as="geometry" />
        </mxCell>
        <mxCell id="JVtk01FOgyeTUDm5MsDd-52" style="edgeStyle=orthogonalEdgeStyle;rounded=0;orthogonalLoop=1;jettySize=auto;html=1;exitX=0.5;exitY=1;exitDx=0;exitDy=0;strokeColor=#FF0000;entryX=0.5;entryY=0;entryDx=0;entryDy=0;" parent="1" source="JVtk01FOgyeTUDm5MsDd-53" target="JVtk01FOgyeTUDm5MsDd-69" edge="1">
          <mxGeometry relative="1" as="geometry" />
        </mxCell>
        <mxCell id="JVtk01FOgyeTUDm5MsDd-53" value="&lt;span style=&quot;font-weight: 400&quot;&gt;Chọn thức uống cần xóa&lt;/span&gt;" style="rounded=1;whiteSpace=wrap;html=1;arcSize=50;fontColor=#000000;fillColor=#ffffc0;strokeColor=#ff0000;fontStyle=1" parent="1" vertex="1">
          <mxGeometry x="1945.63" y="1980" width="135" height="40" as="geometry" />
        </mxCell>
        <mxCell id="JVtk01FOgyeTUDm5MsDd-54" value="Muốn cập nhật thêm hay không?" style="edgeStyle=orthogonalEdgeStyle;rounded=0;orthogonalLoop=1;jettySize=auto;html=1;entryX=0;entryY=0.5;entryDx=0;entryDy=0;strokeColor=#ff0000;exitX=0;exitY=0.5;exitDx=0;exitDy=0;" parent="1" source="JVtk01FOgyeTUDm5MsDd-49" target="JVtk01FOgyeTUDm5MsDd-17" edge="1">
          <mxGeometry x="-0.6634" relative="1" as="geometry">
            <Array as="points">
              <mxPoint x="1360" y="2291" />
              <mxPoint x="1360" y="1670" />
            </Array>
            <mxPoint as="offset" />
            <mxPoint x="1720" y="2190" as="sourcePoint" />
          </mxGeometry>
        </mxCell>
        <mxCell id="JVtk01FOgyeTUDm5MsDd-55" value="yes" style="edgeStyle=orthogonalEdgeStyle;rounded=0;orthogonalLoop=1;jettySize=auto;html=1;exitX=0.5;exitY=1;exitDx=0;exitDy=0;strokeColor=#FF0000;" parent="1" source="JVtk01FOgyeTUDm5MsDd-57" target="JVtk01FOgyeTUDm5MsDd-43" edge="1">
          <mxGeometry relative="1" as="geometry" />
        </mxCell>
        <mxCell id="JVtk01FOgyeTUDm5MsDd-56" value="no" style="edgeStyle=orthogonalEdgeStyle;rounded=0;orthogonalLoop=1;jettySize=auto;html=1;exitX=1;exitY=0.5;exitDx=0;exitDy=0;entryX=0;entryY=0.5;entryDx=0;entryDy=0;strokeColor=#FF0000;" parent="1" source="JVtk01FOgyeTUDm5MsDd-57" target="JVtk01FOgyeTUDm5MsDd-3" edge="1">
          <mxGeometry x="-0.8785" relative="1" as="geometry">
            <mxPoint x="1785" y="2395" as="targetPoint" />
            <Array as="points">
              <mxPoint x="1655" y="2075" />
              <mxPoint x="1655" y="2375" />
            </Array>
            <mxPoint as="offset" />
          </mxGeometry>
        </mxCell>
        <mxCell id="JVtk01FOgyeTUDm5MsDd-57" value="" style="rhombus;whiteSpace=wrap;html=1;fillColor=#ffffc0;strokeColor=#ff0000;" parent="1" vertex="1">
          <mxGeometry x="1512.5" y="2060" width="45" height="30" as="geometry" />
        </mxCell>
        <mxCell id="JVtk01FOgyeTUDm5MsDd-67" value="no" style="edgeStyle=orthogonalEdgeStyle;rounded=0;orthogonalLoop=1;jettySize=auto;html=1;strokeColor=#FF0000;" parent="1" source="JVtk01FOgyeTUDm5MsDd-69" edge="1">
          <mxGeometry x="-0.9394" relative="1" as="geometry">
            <mxPoint x="1815" y="2375" as="targetPoint" />
            <Array as="points">
              <mxPoint x="2100" y="2055" />
              <mxPoint x="2100" y="2375" />
            </Array>
            <mxPoint as="offset" />
          </mxGeometry>
        </mxCell>
        <mxCell id="JVtk01FOgyeTUDm5MsDd-68" value="yes" style="edgeStyle=orthogonalEdgeStyle;rounded=0;orthogonalLoop=1;jettySize=auto;html=1;exitX=0.5;exitY=1;exitDx=0;exitDy=0;entryX=1;entryY=0.5;entryDx=0;entryDy=0;strokeColor=#FF0000;" parent="1" source="JVtk01FOgyeTUDm5MsDd-69" target="JVtk01FOgyeTUDm5MsDd-49" edge="1">
          <mxGeometry x="-0.5556" relative="1" as="geometry">
            <mxPoint as="offset" />
            <mxPoint x="2013.13" y="2110" as="targetPoint" />
          </mxGeometry>
        </mxCell>
        <mxCell id="JVtk01FOgyeTUDm5MsDd-69" value="" style="rhombus;whiteSpace=wrap;html=1;fillColor=#ffffc0;strokeColor=#ff0000;" parent="1" vertex="1">
          <mxGeometry x="1990.63" y="2040" width="45" height="30" as="geometry" />
        </mxCell>
        <mxCell id="JVtk01FOgyeTUDm5MsDd-70" value="A1" style="text;html=1;align=center;verticalAlign=middle;resizable=0;points=[];autosize=1;" parent="1" vertex="1">
          <mxGeometry x="1602.5" y="1740" width="30" height="20" as="geometry" />
        </mxCell>
        <mxCell id="JVtk01FOgyeTUDm5MsDd-71" value="A2" style="text;html=1;align=center;verticalAlign=middle;resizable=0;points=[];autosize=1;" parent="1" vertex="1">
          <mxGeometry x="1765" y="1740" width="30" height="20" as="geometry" />
        </mxCell>
        <mxCell id="JVtk01FOgyeTUDm5MsDd-72" value="A3" style="text;html=1;align=center;verticalAlign=middle;resizable=0;points=[];autosize=1;" parent="1" vertex="1">
          <mxGeometry x="1915.63" y="1740" width="30" height="20" as="geometry" />
        </mxCell>
        <mxCell id="JVtk01FOgyeTUDm5MsDd-73" value="A4" style="text;html=1;align=center;verticalAlign=middle;resizable=0;points=[];autosize=1;" parent="1" vertex="1">
          <mxGeometry x="1650" y="2140" width="30" height="20" as="geometry" />
        </mxCell>
        <mxCell id="JVtk01FOgyeTUDm5MsDd-75" value="A6" style="text;html=1;align=center;verticalAlign=middle;resizable=0;points=[];autosize=1;" parent="1" vertex="1">
          <mxGeometry x="2110" y="2190" width="30" height="20" as="geometry" />
        </mxCell>
        <mxCell id="JVtk01FOgyeTUDm5MsDd-76" value="E1" style="text;html=1;align=center;verticalAlign=middle;resizable=0;points=[];autosize=1;" parent="1" vertex="1">
          <mxGeometry x="1400" y="2080" width="30" height="20" as="geometry" />
        </mxCell>
        <mxCell id="JVtk01FOgyeTUDm5MsDd-77" value="Extension Point" style="text;html=1;align=center;verticalAlign=middle;resizable=0;points=[];autosize=1;" parent="1" vertex="1">
          <mxGeometry x="1365" y="2260" width="100" height="20" as="geometry" />
        </mxCell>
        <mxCell id="JVtk01FOgyeTUDm5MsDd-80" value="Actor có muốn tiếp tục không?" style="text;html=1;align=center;verticalAlign=middle;resizable=0;points=[];autosize=1;" parent="1" vertex="1">
          <mxGeometry x="1548.75" y="2030" width="180" height="20" as="geometry" />
        </mxCell>
        <mxCell id="JVtk01FOgyeTUDm5MsDd-81" value="Actor có muốn tiếp tục không?" style="text;html=1;align=center;verticalAlign=middle;resizable=0;points=[];autosize=1;" parent="1" vertex="1">
          <mxGeometry x="1810.63" y="2040" width="180" height="20" as="geometry" />
        </mxCell>
      </root>
    </mxGraphModel>
  </diagram>
</mxfile>
